<svg id="Capa_1" data-name="Capa 1" xmlns="http://www.w3.org/2000/svg" viewBox="0 0 60 60"><defs><style>.cls-1{fill:#fff;}.cls-2{fill:#2b5095;}.cls-3{fill:#d66b14;}</style></defs><title>escudo-liga</title><path class="cls-1" d="M60,30A30,30,0,0,1,2.36,41.68,30,30,0,0,1,57.64,18.32,29.81,29.81,0,0,1,60,30Z"/><path d="M57.64,18.32A30.1,30.1,0,1,0,60,30,29.89,29.89,0,0,0,57.64,18.32ZM30,59.41A29.41,29.41,0,1,1,59.41,30,29.45,29.45,0,0,1,30,59.41Z"/><path d="M46.91,13.09A23.91,23.91,0,1,0,13.09,46.91,23.91,23.91,0,0,0,46.91,13.09ZM30,53.32A23.32,23.32,0,1,1,53.32,30,23.34,23.34,0,0,1,30,53.32Z"/><path d="M2.8,25.64l0.07-.39L5.08,25,5,25.38l-0.55,0L4.36,26l0.51,0.22-0.06.33Zm1.38-.19-1,.08,0.93,0.4Z"/><path d="M3.78,23.23l0,0.32a0.57,0.57,0,0,0-.28.08,0.33,0.33,0,0,0-.13.21,0.28,0.28,0,0,0,0,.23,0.27,0.27,0,0,0,.17.12,0.23,0.23,0,0,0,.2,0A1.37,1.37,0,0,0,4,23.85a1.9,1.9,0,0,1,.23-0.29,0.57,0.57,0,0,1,.54-0.15,0.63,0.63,0,0,1,.41.29,0.72,0.72,0,0,1,.06.56,0.69,0.69,0,0,1-.75.58l0-.33A0.42,0.42,0,0,0,5,24.19a0.35,0.35,0,0,0,0-.27,0.3,0.3,0,0,0-.19-0.14,0.29,0.29,0,0,0-.19,0,0.73,0.73,0,0,0-.24.26,2.57,2.57,0,0,1-.24.32,0.58,0.58,0,0,1-.55.15,0.58,0.58,0,0,1-.38-0.27,0.65,0.65,0,0,1-.06-0.5A0.64,0.64,0,0,1,3.78,23.23Z"/><path d="M4.89,21.57a1.45,1.45,0,0,1,.74.43,0.65,0.65,0,0,1,.1.63,0.66,0.66,0,0,1-.44.47A1.43,1.43,0,0,1,4.44,23a1.44,1.44,0,0,1-.74-0.43A0.72,0.72,0,0,1,4,21.51,1.44,1.44,0,0,1,4.89,21.57Zm-0.11.36a1.65,1.65,0,0,0-.6-0.09,0.33,0.33,0,0,0-.18.59,1.66,1.66,0,0,0,.55.26,1.69,1.69,0,0,0,.6.09,0.32,0.32,0,0,0,.31-0.24,0.31,0.31,0,0,0-.12-0.35A1.63,1.63,0,0,0,4.78,21.92Z"/><path d="M5.73,20.33L5.89,20a0.69,0.69,0,0,1,.42.91,0.64,0.64,0,0,1-.49.44A1.48,1.48,0,0,1,5,21.28a1.44,1.44,0,0,1-.71-0.48,0.67,0.67,0,0,1-.06-0.65,0.7,0.7,0,0,1,.93-0.39l-0.07.33q-0.47-.12-0.58.16t0.65,0.68q0.74,0.28.88-.1a0.28,0.28,0,0,0,0-.27A0.86,0.86,0,0,0,5.73,20.33Z"/><path d="M4.66,19.18l0.14-.33,2,0.86L6.63,20Z"/><path d="M5.18,18l0.18-.36,2.18,0.43-0.16.32-0.54-.12-0.28.56L7,19.25l-0.15.3Zm1.37,0.22-1-.21L6.34,18.7Z"/><path d="M7.51,16.7l0.2-.26a0.69,0.69,0,0,1,.27,1,0.64,0.64,0,0,1-.55.36,1.48,1.48,0,0,1-.79-0.23A1.44,1.44,0,0,1,6,16.94a0.67,0.67,0,0,1,0-.65,0.7,0.7,0,0,1,1-.24l-0.12.31q-0.45-.2-0.6.07t0.53,0.78q0.69,0.39.89,0a0.28,0.28,0,0,0,0-.27A0.86,0.86,0,0,0,7.51,16.7Z"/><path d="M6.64,15.4l0.19-.3,1.81,1.15-0.19.3Z"/><path d="M7.14,14.1l-0.07-.67,0.27,0,0,0.65Zm1.68,0a1.45,1.45,0,0,1,.57.64,0.65,0.65,0,0,1-.1.63,0.66,0.66,0,0,1-.56.31,1.43,1.43,0,0,1-.79-0.32,1.44,1.44,0,0,1-.56-0.64A0.72,0.72,0,0,1,8,13.79,1.44,1.44,0,0,1,8.82,14.1Zm-0.21.3a1.65,1.65,0,0,0-.54-0.27,0.33,0.33,0,0,0-.36.51,1.66,1.66,0,0,0,.44.42,1.69,1.69,0,0,0,.54.27A0.32,0.32,0,0,0,9,15.21a0.31,0.31,0,0,0,0-.37A1.63,1.63,0,0,0,8.6,14.41Z"/><path d="M8.21,13.13l0.26-.32,1.64,0.43-1.2-1L9.11,12l1.66,1.36-0.21.26-1.83-.47,1.33,1.09-0.19.23Z"/><path d="M11.65,11.41l0.26-.2a0.69,0.69,0,0,1,0,1,0.64,0.64,0,0,1-.62.21A1.48,1.48,0,0,1,10.6,12a1.44,1.44,0,0,1-.45-0.73,0.67,0.67,0,0,1,.2-0.62,0.7,0.7,0,0,1,1,0l-0.2.27q-0.39-.3-0.6-0.08t0.32,0.89q0.56,0.55.85,0.26a0.28,0.28,0,0,0,.09-0.26A0.86,0.86,0,0,0,11.65,11.41Z"/><path d="M11.13,9.93l0.26-.24,1.46,1.57-0.26.24Z"/><path d="M11.58,9.51l0.28-.24,1.42,1-0.8-1.57,0.24-.2,1,2-0.3.25Z"/><path d="M12.94,8.37l0.28-.22,1.32,1.69-0.28.22Z"/><path d="M13.6,7.87l0.29-.21L15,9.16l0.62-.44L15.75,9l-0.91.65Z"/><path d="M15.28,6.72l0.3-.19,1,1.57,0.65-.4L17.34,8l-1,.58Z"/><path d="M16.46,6l0.31-.17,1,1.87-0.31.17Z"/><path d="M18.32,6.21L19,5.89l0.49,1L19.28,7l-0.16-.22a0.55,0.55,0,0,1-.33.49,0.65,0.65,0,0,1-.63,0,1.37,1.37,0,0,1-.53-0.62,1.51,1.51,0,0,1-.19-0.84,0.68,0.68,0,0,1,.42-0.55,0.67,0.67,0,0,1,.91.28l-0.25.21a0.66,0.66,0,0,0-.29-0.25,0.34,0.34,0,0,0-.24,0q-0.39.19,0,.92T18.71,7Q19,6.8,18.79,6.3l-0.34.17Z"/><path d="M19.36,4.59l0.37-.15L21.07,6.2l-0.33.14-0.33-.45-0.58.24,0.08,0.55-0.31.13Zm0.88,1.07-0.6-.81,0.15,1Z"/><path d="M21.15,3.91l1.13-.36,0.09,0.27-0.8.25,0.2,0.61,0.64-.2L22.5,4.75l-0.64.2,0.28,0.89-0.34.11Z"/><path d="M22.54,3.47l0.34-.09L23.2,4.68a1.66,1.66,0,0,0,.1.31,0.28,0.28,0,0,0,.15.14A0.45,0.45,0,0,0,23.88,5a0.27,0.27,0,0,0,.07-0.17,1.39,1.39,0,0,0-.06-0.37L23.56,3.21l0.31-.08L24.19,4.4a2,2,0,0,1,.08.48,0.49,0.49,0,0,1-.13.32,0.76,0.76,0,0,1-.4.22,0.9,0.9,0,0,1-.37,0,0.48,0.48,0,0,1-.28-0.16,1.34,1.34,0,0,1-.21-0.52Z"/><path d="M24.36,3l1.21-.23,0.05,0.28-0.86.16,0.11,0.6,0.67-.13L25.6,4l-0.67.13L25,4.79l0.87-.16L26,4.91l-1.22.23Z"/><path d="M26.77,3.7l0.71-.09,0.14,1.11-0.19,0-0.08-.26a0.55,0.55,0,0,1-.48.36,0.65,0.65,0,0,1-.59-0.22A1.37,1.37,0,0,1,26,3.85,1.51,1.51,0,0,1,26.08,3a0.68,0.68,0,0,1,.57-0.38,0.67,0.67,0,0,1,.77.56L27.1,3.3A0.66,0.66,0,0,0,26.91,3a0.34,0.34,0,0,0-.23-0.05q-0.43.05-.33,0.86t0.54,0.76q0.36,0,.3-0.6L26.8,4Z"/><path d="M27.81,2.53l0.35,0,0.07,1.33a1.66,1.66,0,0,0,0,.33,0.28,0.28,0,0,0,.12.16,0.45,0.45,0,0,0,.44,0,0.27,0.27,0,0,0,.1-0.15,1.39,1.39,0,0,0,0-.37L28.86,2.48l0.32,0,0.07,1.31a2,2,0,0,1,0,.49,0.49,0.49,0,0,1-.19.29,0.76,0.76,0,0,1-.43.13,0.9,0.9,0,0,1-.37,0A0.48,0.48,0,0,1,28,4.42a1.35,1.35,0,0,1-.11-0.55Z"/><path d="M29.63,2.46H30L30,4.6H29.67Z"/><path d="M30.49,2.45l0.42,0L31.54,4,31.61,2.5h0.3L31.82,4.66H31.48L30.77,2.89,30.69,4.61H30.4Z"/><path d="M32.85,2.6l0.4,0,0.34,2.19-0.36,0-0.08-.55-0.63-.07-0.19.52L32,4.67ZM33.11,4L33,3l-0.35.95Z"/><path d="M34.73,2.86l0.35,0.06L34.7,5,34.35,5Z"/><path d="M35.55,3L36,3.1,36.3,4.77l0.35-1.51,0.29,0.07L36.45,5.42l-0.32-.07L35.75,3.49,35.36,5.16,35.07,5.1Z"/><path d="M37.43,3.46L37.9,3.6a1.1,1.1,0,0,1,.5.28,0.78,0.78,0,0,1,.2.45,1.34,1.34,0,0,1-.06.55,1.52,1.52,0,0,1-.26.51,0.9,0.9,0,0,1-.4.29,0.92,0.92,0,0,1-.59,0L36.8,5.51Zm0.26,0.38L37.23,5.35l0.14,0a0.5,0.5,0,0,0,.49-0.07,1,1,0,0,0,.3-0.51q0.23-.75-0.33-0.93Z"/><path d="M39.26,4L40.4,4.48l-0.1.27-0.82-.31L39.27,5l0.64,0.24-0.1.27-0.64-.24-0.24.63,0.83,0.31-0.1.27L38.5,6.05Z"/><path d="M40.72,4.62l0.48,0.22a1.47,1.47,0,0,1,.36.21,0.49,0.49,0,0,1,.16.3,0.7,0.7,0,0,1-.06.4,0.72,0.72,0,0,1-.23.3,0.52,0.52,0,0,1-.31.1A1.16,1.16,0,0,1,40.68,6L40.51,6l-0.34.76-0.32-.15ZM40.93,5l-0.31.68,0.16,0.07a0.47,0.47,0,0,0,.33.05,0.39,0.39,0,0,0,.2-0.22,0.43,0.43,0,0,0,0-.24,0.25,0.25,0,0,0-.07-0.16,0.86,0.86,0,0,0-.2-0.11Z"/><path d="M42.26,5.32l1.09,0.57-0.13.25-0.77-.4-0.28.54L42.76,6.6l-0.13.25L42,6.53l-0.31.59L42.5,7.54l-0.13.26-1.1-.58Z"/><path d="M43.64,6.06L44,6.27,43.8,8l0.8-1.32,0.25,0.15L43.75,8.63l-0.28-.17,0.21-1.88L42.79,8l-0.25-.15Z"/><path d="M45.29,7.07l0.39,0.28a1.1,1.1,0,0,1,.39.42,0.78,0.78,0,0,1,0,.48,1.34,1.34,0,0,1-.23.51,1.52,1.52,0,0,1-.4.4,0.9,0.9,0,0,1-.47.15,0.92,0.92,0,0,1-.55-0.2l-0.42-.29Zm0.13,0.44L44.51,8.8l0.12,0.09a0.5,0.5,0,0,0,.49.08,1,1,0,0,0,.44-0.39q0.45-.64,0-1Z"/><path d="M46.82,8.18L47.1,8.4l-1.32,1.69-0.28-.22Z"/><path d="M47.47,8.7l0.93,0.8-0.18.22-0.66-.57-0.4.47,0.52,0.44-0.19.22L47,9.83l-0.44.51,0.68,0.58L47,11.14l-0.95-.81Z"/><path d="M48.66,9.73L49,10l-0.57,1.6,1.08-1.11,0.21,0.21-1.49,1.54L48,12l0.63-1.78-1.2,1.23-0.21-.21Z"/><path d="M49.84,10.89l0.89,1-0.22.2-0.32-.35L48.83,13l-0.24-.26,1.36-1.25-0.32-.35Z"/><path d="M50.89,12L51.67,13l-0.22.18-0.56-.67-0.47.39,0.44,0.53-0.22.18-0.44-.53-0.52.43,0.57,0.68L50,14.36l-0.79-1Z"/><path d="M52.27,13.77l0.27,0.4a1.1,1.1,0,0,1,.22.53,0.78,0.78,0,0,1-.12.47,1.34,1.34,0,0,1-.39.4,1.52,1.52,0,0,1-.52.24,0.9,0.9,0,0,1-.49,0,0.92,0.92,0,0,1-.45-0.38L50.5,15Zm0,0.45-1.3.9L51,15.24a0.5,0.5,0,0,0,.43.25A1,1,0,0,0,52,15.28q0.65-.45.31-0.93Z"/><path d="M53.34,15.35L54,16.4l-0.24.15-0.45-.75-0.52.32,0.35,0.59-0.25.15-0.35-.59-0.57.35,0.46,0.76-0.25.15L51.5,16.46Z"/><path d="M54.43,17.27L55,18.33l-0.25.13-0.37-.75L53.77,18l0.3,0.6-0.25.13-0.3-.6-0.84.42-0.16-.32Z"/><path d="M55.08,18.57l0.14,0.32L54,19.41a1.65,1.65,0,0,0-.29.15,0.28,0.28,0,0,0-.11.16,0.45,0.45,0,0,0,.16.41,0.27,0.27,0,0,0,.17,0,1.39,1.39,0,0,0,.35-0.12l1.22-.52,0.13,0.29-1.2.51a2,2,0,0,1-.46.15,0.49,0.49,0,0,1-.34-0.08,0.76,0.76,0,0,1-.27-0.36,0.9,0.9,0,0,1-.08-0.37,0.48,0.48,0,0,1,.12-0.31,1.34,1.34,0,0,1,.48-0.29Zm0.47,0.33,0.6,0.29L56,19.43l-0.54-.37Z"/><path d="M55.7,20l0.44,1.23-0.28.1-0.16-.45L54,21.56l-0.12-.33,1.73-.62-0.16-.45Z"/><path d="M56.22,21.52l0.18,0.62a1.34,1.34,0,0,1,.07.37,0.4,0.4,0,0,1-.11.26,0.6,0.6,0,0,1-.29.18,0.45,0.45,0,0,1-.54-0.17,0.51,0.51,0,0,1-.41.52,0.62,0.62,0,0,1-.44,0,0.75,0.75,0,0,1-.33-0.51l-0.19-.63Zm-1.69.86,0.08,0.27a0.33,0.33,0,0,0,.44.28,0.38,0.38,0,0,0,.21-0.15,0.42,0.42,0,0,0,0-.36l-0.07-.25Zm0.93-.28,0.06,0.22a0.41,0.41,0,0,0,.17.28,0.33,0.33,0,0,0,.24,0,0.28,0.28,0,0,0,.2-0.15,0.42,0.42,0,0,0,0-.28l-0.07-.25Z"/><path d="M56,25a1.45,1.45,0,0,1-.85,0,0.65,0.65,0,0,1-.4-0.5,0.66,0.66,0,0,1,.15-0.62,1.83,1.83,0,0,1,1.62-.36,0.72,0.72,0,0,1,.25,1.12A1.44,1.44,0,0,1,56,25Zm-0.08-.36a1.65,1.65,0,0,0,.57-0.22,0.33,0.33,0,0,0-.14-0.6,1.66,1.66,0,0,0-.61,0,1.69,1.69,0,0,0-.56.21,0.32,0.32,0,0,0-.15.36,0.31,0.31,0,0,0,.28.25A1.63,1.63,0,0,0,55.92,24.59Z"/><path d="M57.12,25.15l0.06,0.35-1.82.29,0.12,0.75-0.3,0L55,25.49Z"/><path d="M12,48.53L12.54,49a0.8,0.8,0,0,1,.29.49,0.58,0.58,0,0,1-.19.45,0.57,0.57,0,0,1-.64.17l-0.36,1-0.29-.28,0.36-.89-0.26-.24-0.62.65-0.27-.26ZM12.13,49l-0.48.51,0.21,0.2a0.36,0.36,0,0,0,.27.12,0.38,0.38,0,0,0,.25-0.13,0.31,0.31,0,0,0,0-.5Z"/><path d="M13.33,49.72L13.62,50l-1.39,1.63-0.28-.24Zm0.19-.23h0.69v0.28l-0.67-.11Z"/><path d="M14.5,52a1.39,1.39,0,0,1-.67.53,0.7,0.7,0,0,1-.65-0.14,0.71,0.71,0,0,1-.31-0.59,1.75,1.75,0,0,1,1-1.32,0.79,0.79,0,0,1,1,.73A1.38,1.38,0,0,1,14.5,52Zm-0.31-.24a1.57,1.57,0,0,0,.29-0.53,0.35,0.35,0,0,0-.52-0.4,1.58,1.58,0,0,0-.44.42,1.61,1.61,0,0,0-.29.53,0.33,0.33,0,0,0,.13.38,0.33,0.33,0,0,0,.39,0A1.55,1.55,0,0,0,14.18,51.77Z"/><path d="M16,53l0.64,0.4-0.59.95-0.17-.1,0.1-.26a0.58,0.58,0,0,1-.62,0A0.69,0.69,0,0,1,15,53.35a1.31,1.31,0,0,1,.23-0.79,1.45,1.45,0,0,1,.62-0.6,0.73,0.73,0,0,1,.71.08,0.69,0.69,0,0,1,.28.94l-0.33-.11a0.64,0.64,0,0,0,.05-0.39,0.37,0.37,0,0,0-.16-0.19q-0.39-.24-0.82.45t0,0.94q0.33,0.2.62-.27l-0.34-.21Z"/><path d="M17.48,52.63l0.6,0.32a0.79,0.79,0,0,1,.41.39,0.58,0.58,0,0,1-.06.49,0.57,0.57,0,0,1-.57.34L17.8,55.22,17.44,55l0.1-1-0.31-.16-0.41.79-0.33-.17ZM17.69,53l-0.32.62,0.25,0.13a0.36,0.36,0,0,0,.3,0,0.38,0.38,0,0,0,.2-0.19,0.31,0.31,0,0,0-.17-0.47Z"/><path d="M19.42,53.59l0.38,0.17L19.49,56l-0.35-.15,0.09-.55L18.63,55l-0.35.44L18,55.29ZM19.28,55l0.16-1-0.63.8Z"/><path d="M20.51,54.06l0.41,0.15,0.18,1.71,0.52-1.45,0.29,0.11-0.73,2-0.33-.12-0.2-1.9-0.58,1.62-0.29-.11Z"/><path d="M22.26,54.68l0.49,0.14a1.21,1.21,0,0,1,.54.28,0.79,0.79,0,0,1,.22.45,1.28,1.28,0,0,1,0,.55,1.45,1.45,0,0,1-.25.51,0.91,0.91,0,0,1-.41.3,1,1,0,0,1-.62,0l-0.52-.15Zm0.28,0.38-0.43,1.52,0.15,0a0.54,0.54,0,0,0,.52-0.08,1,1,0,0,0,.3-0.51,0.63,0.63,0,0,0-.39-0.93Z"/><path d="M24.05,55.17l1.27,0.27-0.06.28-0.9-.19-0.13.6,0.71,0.15-0.06.28-0.71-.15L24,57.06,25,57.25l-0.06.28-1.28-.27Z"/><path d="M25.91,56.75l0.71,0.1,0,0.26L25.87,57Z"/><path d="M27.43,55.73l1.38,0.1,0,0.3-0.5,0-0.13,1.84-0.37,0,0.13-1.84-0.5,0Z"/><path d="M28.94,55.82h0.37L29.25,58H28.87Z"/><path d="M29.71,55.85l1.3,0v0.28H30.09v0.61h0.72V57H30.11V57.7h0.94V58l-1.31,0Z"/><path d="M31.23,55.82l0.68,0a0.79,0.79,0,0,1,.56.12,0.58,0.58,0,0,1,.21.44,0.57,0.57,0,0,1-.31.58l0.5,0.94-0.41,0L32,57l-0.35,0,0.06,0.89-0.37,0Zm0.39,0.25,0.05,0.7,0.29,0a0.36,0.36,0,0,0,.27-0.12,0.38,0.38,0,0,0,.07-0.27A0.31,0.31,0,0,0,31.91,56Z"/><path d="M33,55.68l0.67-.09a0.8,0.8,0,0,1,.56.08,0.58,0.58,0,0,1,.24.43,0.57,0.57,0,0,1-.27.6l0.56,0.9-0.4.06-0.47-.84-0.35,0,0.12,0.89-0.37.05Zm0.41,0.22,0.1,0.69,0.28,0A0.36,0.36,0,0,0,34,56.42a0.38,0.38,0,0,0,.05-0.27,0.31,0.31,0,0,0-.41-0.28Z"/><path d="M35.1,55.34l0.41-.08,1,2-0.37.08-0.25-.5-0.65.13,0,0.55-0.35.07Zm0.69,1.21-0.45-.91-0.05,1Z"/><path d="M36.87,54.94l0.49-.15a1.21,1.21,0,0,1,.6-0.05,0.79,0.79,0,0,1,.43.26,1.28,1.28,0,0,1,.27.49,1.45,1.45,0,0,1,.07.57,0.91,0.91,0,0,1-.18.47,1,1,0,0,1-.53.32L37.49,57Zm0.44,0.16,0.46,1.51,0.15,0a0.54,0.54,0,0,0,.39-0.34,1,1,0,0,0,0-.59,0.63,0.63,0,0,0-.83-0.57Z"/><path d="M38.63,54.38l1.21-.46,0.1,0.27-0.86.33,0.22,0.57L40,54.83l0.1,0.27-0.68.26L39.64,56l0.88-.33,0.1,0.27-1.23.46Z"/><path d="M40,53.83l0.34-.15,0.75,1.69L41.87,55,42,55.31l-1.07.48Z"/><path d="M41.82,53l1.1-.6,0.14,0.25-0.77.42,0.31,0.56,0.62-.34,0.14,0.25-0.62.34,0.45,0.82-0.33.18Z"/><path d="M43,52.34l0.31-.19L44,53.27a1.57,1.57,0,0,0,.2.27,0.27,0.27,0,0,0,.19.08,0.5,0.5,0,0,0,.4-0.24,0.28,0.28,0,0,0,0-.18,1.32,1.32,0,0,0-.17-0.33L44,51.75l0.28-.18,0.7,1.11a1.91,1.91,0,0,1,.22.43,0.49,0.49,0,0,1,0,.35,0.83,0.83,0,0,1-.33.34,1,1,0,0,1-.37.15,0.49,0.49,0,0,1-.33-0.06,1.28,1.28,0,0,1-.37-0.43Z"/><path d="M44.55,51.36l1-.76,0.17,0.23L45,51.37l0.36,0.5L46,51.44l0.17,0.23-0.58.42,0.39,0.54,0.76-.55,0.17,0.24-1.06.77Z"/><path d="M47,50.78l0.58-.48,0.72,0.86-0.15.13L48,51.1a0.58,0.58,0,0,1-.23.58,0.69,0.69,0,0,1-.64.16,1.31,1.31,0,0,1-.67-0.47A1.45,1.45,0,0,1,46,50.59a0.73,0.73,0,0,1,.3-0.65,0.69,0.69,0,0,1,1,0l-0.21.28a0.65,0.65,0,0,0-.35-0.17,0.37,0.37,0,0,0-.24.09q-0.35.29,0.17,0.92t0.88,0.33q0.3-.25-0.06-0.68L47.21,51Z"/><path d="M49,49a1.39,1.39,0,0,1,.43.74,0.7,0.7,0,0,1-.23.62,0.71,0.71,0,0,1-.63.22,1.75,1.75,0,0,1-1.16-1.19,0.79,0.79,0,0,1,.86-0.84A1.38,1.38,0,0,1,49,49Zm-0.28.27a1.57,1.57,0,0,0-.49-0.37,0.35,0.35,0,0,0-.47.46,1.58,1.58,0,0,0,.35.5,1.61,1.61,0,0,0,.48.36A0.33,0.33,0,0,0,49,50.11a0.33,0.33,0,0,0,.08-0.38A1.55,1.55,0,0,0,48.75,49.24Z"/><polygon points="20.09 22.77 20.27 22.92 20.21 23 20.02 22.84 20.09 22.77"/><path d="M51.48,27.16V25H48.28a7.94,7.94,0,0,1-2.72-.36,4,4,0,0,1-2.1-1.13c-1-1.07-1.16-2.77-.59-5.06l0.07-.26-3.1-1V13L30.1,8.4l-9.76,4.66-0.09,0,0.08,3.69-3.54,1.29,0.1,0.27s1.11,3.19-.36,5a3.14,3.14,0,0,1-1.13.89l0,0h0a5.76,5.76,0,0,1-2.3.47h0c-1,.12-1.88.17-1.88,0.17H8.52v2.19h2.75l0.4,7.69H8.52V37h3.26l0,0.55a8.55,8.55,0,0,0,1.21,4c1.12,1.93,3.52,4.5,8.64,5.75,6.73,1.64,8,3,8.16,3.5a0.36,0.36,0,0,1,0,.27l-0.08.13,0.49,0.31,0.08-.13c0.08-.11,1.93-2.74,9.68-4.68A10.33,10.33,0,0,0,47.28,41a11,11,0,0,0,1-4h3.21V34.86H48.28V27.16h3.21ZM17,23.78c1.4-1.77.83-4.38,0.55-5.33l3.4-1.24-0.09-3.74L30.1,9.06l9.15,4.34v4.16l3,1c-0.54,2.36-.27,4.15.79,5.33A4.21,4.21,0,0,0,44.66,25H15.35A3.87,3.87,0,0,0,17,23.78Zm29.75,17a9.75,9.75,0,0,1-6.85,5.41c-6.05,1.51-8.61,3.45-9.55,4.37-0.61-1.28-3.48-2.55-8.54-3.78-4.9-1.2-7.2-3.63-8.26-5.46a8.08,8.08,0,0,1-1.14-3.72l0-.54H47.68A10.41,10.41,0,0,1,46.74,40.77Zm4.15-5.32v1H9.11v-1H50.89Zm-39-8.28H47.68v7.69H12.26Zm-2.75-.59v-1H50.89v1H9.11Z"/><polygon class="cls-1" points="47.68 27.16 47.68 34.86 12.26 34.86 11.85 27.16 47.68 27.16"/><path class="cls-2" d="M44.66,25H15.35A3.87,3.87,0,0,0,17,23.78c1.4-1.77.83-4.38,0.55-5.33l3.4-1.24-0.09-3.74L30.1,9.06l9.15,4.34v4.16l3,1c-0.54,2.36-.27,4.15.79,5.33A4.21,4.21,0,0,0,44.66,25Z"/><rect class="cls-2" x="9.11" y="25.56" width="41.78" height="1.01"/><rect class="cls-2" x="9.11" y="35.45" width="41.78" height="1.01"/><path class="cls-3" d="M47.68,37a10.41,10.41,0,0,1-.94,3.72,9.75,9.75,0,0,1-6.85,5.41c-6.05,1.51-8.61,3.45-9.55,4.37-0.61-1.28-3.48-2.55-8.54-3.78-4.9-1.2-7.2-3.63-8.26-5.46a8.08,8.08,0,0,1-1.14-3.72l0-.54H47.68Z"/><path class="cls-1" d="M36.9,16.51a7,7,0,0,0-5.43-5.8A6.75,6.75,0,0,0,30,10.55a7,7,0,0,0-6.94,6.33,6.41,6.41,0,0,0,0,.65,6.93,6.93,0,0,0,1.19,3.89l0.14,0.2a7,7,0,0,0,3.49,2.54l0.41,0.12a7,7,0,0,0,1.74.22,6.85,6.85,0,0,0,1-.07l0.35-.06a7,7,0,0,0,4.3-2.78l0.14-.21A7,7,0,0,0,36.9,16.51Zm-4.64,6.33,0.06-.08,0.18,0.16L32.44,23Z"/><path d="M36.9,16.51a7,7,0,0,0-13.84.37q0,0.32,0,.65a6.93,6.93,0,0,0,1.19,3.89l0.14,0.2a7,7,0,0,0,3.49,2.54l0.41,0.12a7,7,0,0,0,1.74.22,7.06,7.06,0,0,0,1-.07l0.36-.06a7,7,0,0,0,4.3-2.77l0.15-.21A7,7,0,0,0,36.9,16.51Zm-1-.14-1.15,2.7-2.25.19L30.68,16.6l0.92-2.37h2.8Zm-8,.35h2.63l1.73,2.57L31,21.5H27.65l-1.31-2.26Zm2-5.49L31,10.86a6.71,6.71,0,0,1,3.27,1.44V14H31.62l-2.12-1.25,0.28-1.53h0Zm-5,2.06a6.74,6.74,0,0,1,4.15-2.41l0.63,0.25L29.27,12.7,27.2,14.08l-2.43-.23V13.29Zm0,0.83v0L27,14.3l0.74,2.17-1.54,2.59H24.58l-1-3Zm-1.51,3.41a6.8,6.8,0,0,1,.1-1.14l0-.17,0,0.08,0.95,2.9L24.61,21l-0.22.22A6.7,6.7,0,0,1,23.27,17.52Zm12.3,3.79-0.66-.16v0.18l-0.08.05,0.58,0.14a6.75,6.75,0,0,1-3.81,2.54L32.44,23l-0.18-.16-1,1.3A6.71,6.71,0,0,1,28,24l-1.1-1.34-0.16.18h0l0.83,1a6.77,6.77,0,0,1-3-2.35l0.14-.14,2.06,1.49,0,0,0.18-.16,0,0,0.77-.87H31l1.28,1.1,0.06-.08,0.18,0.16L32.44,23h0l2.39-1.62-0.08,0,0-.24,0.09,0-0.12-1.63,1.28-3h0.59a6.84,6.84,0,0,1,.08,1A6.69,6.69,0,0,1,35.56,21.31Z"/><path class="cls-1" d="M40.47,41.71l-0.14.1-0.31,0,0,0.1-0.07-.11,0.18,0,0.32,0,0.1-.11h0.14l-0.13-.35,0,0,0-.13-0.08.18,0-.17-0.16-.07-0.07.16L40,41.12l-0.83-.19-0.33,0-0.09-.08-0.1-.09h0.17l0-.14c0-.14-0.08-0.13-0.08-0.13l0.2-.06-0.06-.21,0.2,0,0,0.27,0.15,0.11v0.07l0.17-.07a1.53,1.53,0,0,0,1.06,0l0-.13-0.07-.13h0.19l-0.33-.39-0.14,0L40,39.81V39.57H39.88L40,39.31l-0.16,0-0.13-.17-0.26-.28-0.13.11H38.9l-0.22-.11L38.41,39l-0.28,0L37.79,39l-0.2-.09-0.22.11-0.12.28-0.06-.09,0.06-.17L37.18,39l-0.1-.29-0.21-.07,0.06-.1-0.09-.1-0.11,0V38.39l-0.31-.14-0.12-.13-0.13.09-0.49-.08-0.14.12H35.27l-0.1.2V38.29l-0.27.12V38.25H34.68l0,0.1,0-.1h-0.1l-0.08-.08-0.09,0L34.18,38l-0.36-.11-0.15-.24-0.31-.21-0.09,0,0,0.1,0,0.07,0.07,0.07,0,0.11h0.11l0.09,0.18v0.1l0.09,0.07,0.08,0.19v0.09h0.09L34,38.67l-0.11,0v0.13l-0.77.06v0.21l-0.2.19-0.22-.19H32.51l-0.06.19-0.17.14,0,0.22,0.2,0.15L32.84,40l0,0L33,40a0.43,0.43,0,0,0-.3.23l-0.24-.3H32.35l0,0.09,0.09,0.17-0.29.47L32,40.73l-0.13-.07v0.22h0.29L32.18,41h0.13l0,0.08,0.13,0.08,0.16,0.18h0.17l0,0.2-0.11,0,0.11,0-0.14,0-0.09-.12-0.07.24-0.38.07L32.05,42l-0.12-.09L31.66,42l-0.06.26-0.24-.19v0.19l-0.09.08,0,0.25c-0.06.24-.3-0.14-0.3-0.14l-0.09,0a0.52,0.52,0,0,1-.12.54l-0.06-.25-0.17.07,0,0.1-0.1-.06L30.18,43,30,43.22l0.15,0.13s0,0.08-.08.14S30,43.37,30,43.37l-0.11.06,0,0.13v0.17l0.32,0.17H30.07l-0.12,0-0.06,0-0.09-.14-0.12-.11,0-.17,0-.17-0.09-.07-0.19.07v0.06H29.27a2.91,2.91,0,0,0-.27.28l0.19,0.09,0,0.2L29.33,44l0.14-.08v0.19l0.33,0.17-0.06.06-0.55-.25-0.25-.16-0.1.42L29,44.49h0.07l0,0.1L29,44.67l0.09,0.21,0.24,0-0.09-.21,0.21,0.11V45l0.25,0.11-0.1.07-0.15,0-0.17.1,0.13,0.32-0.13,0H29.2l0.06-.11-0.1-.17-0.06.13-0.17-.06L29,45.31l-0.11-.07L29,44.93l-0.14,0-0.11.17-0.11.25,0.19,0.25-0.06.24a1,1,0,0,1,.23.26H28.6l0-.25H28.43v0.13H28.38l0,0.21,0.1,0.17h0.15l0.14,0.1,0,0.41-0.08.11,0.12,0.43-0.11.06s0.1,0.21-.07.24a0.44,0.44,0,0,0-.26.18L28.33,48h0.1v0.09l0.37,0.18H29l0.24-.09-0.07-.07L29.34,48l-0.07-.21H29.16L29,48V47.84L28.84,48a1.24,1.24,0,0,1,0-.22A0.76,0.76,0,0,1,29,47.65l0.14-.17,0-.19-0.34.07,0.06-.23L29,47v0.12H29.2V46.95l0-.24,0.17-.17-0.09-.07-0.06.11,0-.24,0-.09,0.11,0.09,0.15,0.24-0.13.13,0.13,0.12,0.06-.13,0.11,0.08,0,0.23,0.2,0.21,0.17,0,0.09,0.09,0,0.14h0.47l0,0.17,0.19,0.09L30.86,48l0.49-.09,0-.16-0.1-.22-0.17.17,0-.08-0.24-.16h0.22l0.17-.13L31.08,47h0.27l0-.24-0.14-.09,0.1-.24,0.09-.15h0.13l0,0.24,0.13,0,0.18,0.19,0.11-.1,0.21,0,0.28,0.17,0,0.09,0.13,0L33,47l0.15-.17,0.06,0,0.36-.08,0.34,0-0.06-.09,0.32-.28-0.09-.13V46.15l0.13-.21-0.11-.16-0.16,0-0.06.15,0.06,0.15-0.17,0,0.07,0.09-0.17.09,0.21,0.12-0.29.19-0.13.08-0.35-.08L33,46.77l-0.1-.17,0.1-.15-0.11-.21-0.18.13,0.11-.21A2.51,2.51,0,0,0,33.13,46a0.48,0.48,0,0,1,.09-0.11L33,45.8v0.06l-0.13-.06H32.6l0.09-.1-0.06-.21-0.16,0,0.23-.21-0.25-.09L32.31,45l0-.16-0.17,0L32.1,45,32,45.12l0-.36,0.24,0,0.21,0.13,0.5,0.1,0,0.11L33,45.18v0.29l0.16,0,0.14-.17,0.15,0.43,0.13-.32,0.28,0V45.18l0.17,0L34.28,45l0.06,0.09,0.23,0-0.07.13,0.12,0.15,0.15-.08,0,0.16,0.13,0-0.13.2-0.17.06v0.11L34.73,46,34.6,46l0.17,0.13L34.89,46V45.77L35.1,46l0.08-.15L35.27,46l-0.09,0,0.21,0.09,0.13-.34H35.41l-0.09-.15-0.16-.09V45.28l-0.09-.13,0.16-.09,0-.09,0.12-.11,0.16,0.07,0.09-.24-0.13-.06-0.07-.32-0.21-.08,0-.19-0.21,0,0,0.13L34.82,44v0.16l-0.27-.09,0.22-.2-0.24,0L34.44,44,34,43.78l0-.17-0.16-.09-0.28-.21,0.31,0.08,0,0.08,0.19,0v0.26h0.15l0,0.09,0.4-.13,0.2,0.09,0,0,0.22-.07,0,0.15,0.18-.09h0.22l0.23,0,0.08,0.06,0.13,0,0-.14,0.09,0L36.17,44l0.47,0.09,0-.21,0.15-.23,0.11,0.11,0.17-.17,0.12,0.08,0.28-.11,0.11,0.06V43.51l0.14,0,0-.25,0.36-.15L38,43l0,0L38,42.88,38.46,43l0-.07h0.21l0-.14-0.1,0H38.41l0-.09-0.06.06-0.39,0-0.07-.15c0.88,0.25.78,0,.78,0l1.18-.09V42.31l0.86-.44ZM36.1,39.19V39.05h0.1l0,0.07Zm0.65,0.75-0.18,0,0.09-.28,0-.17-0.1-.09-0.16,0-0.11-.21,0.3,0h0.12v0.18l0.09,0.05v0.16l0.1,0Zm0.55,0.27-0.2-.11-0.2.15L37,40.09V40h0.15l0.16-.28L37.22,40Zm0.29,0.29-0.07.07V40.5h0V40.42l0,0,0-.13V40.16l0.12-.05,0.1,0-0.15.05v0.13Z"/><path class="cls-1" d="M24.24,44.22h0Z"/><path class="cls-1" d="M24.19,44.22h0Z"/><path class="cls-1" d="M30.52,38.17v0S30.52,38.17,30.52,38.17Z"/><path class="cls-1" d="M28.78,43l0.15-.06L29,42.81h0.07v-0.1l0.1,0a1.74,1.74,0,0,0,.51.21l0.13-.09,0.09,0,0-.08,0-.27V42.36l-0.09-.08-0.08.13-0.14.12-0.06-.07-0.09,0,0-.06-0.06-.06,0.07-.13,0.1-.15L29.72,42l0.14-.21L30,41.42l0.3-.27,0,0.17h0.31l0.32-.3,0.06-.28,0.1-.09,0-.1,0.12-.12,0.14-.08,0-.12h0.14l0-.13,0.23-.21,0.15-.07-0.07,0,0.18,0,0,0a0.72,0.72,0,0,0,.2-0.31,0.61,0.61,0,0,0-.28.1V39.39l0,0.06,0-.06,0.05,0,0.18-.12L32,39.08l-0.3-.1-0.13-.1h-0.1l-0.16-.09H31.25l0-.09-0.12,0-0.18-.18-0.17-.06-0.09-.07-0.09-.06,0-.12-0.07,0c-0.11,0,0-.07,0-0.07A0.28,0.28,0,0,0,30.06,38a0.18,0.18,0,0,0-.16,0,0.29,0.29,0,0,1,0,.15c-0.12.25-.17,0.06-0.17,0.06,0.22-.45-0.27-0.37-0.27-0.37a1.36,1.36,0,0,1-.53,0c-0.2-.06,0-0.13,0-0.13l-0.22-.09-0.36.09a0.12,0.12,0,0,1-.14,0A0.22,0.22,0,0,0,28,37.44l0.07,0.12c-0.48-.18-0.13.22-0.13,0.22a4.62,4.62,0,0,1,.56.29c0.28,0.17.15,0.25,0.15,0.25a0.39,0.39,0,0,0-.19.22,0.18,0.18,0,0,0-.17.07l-0.16-.17c0-.07,0-0.07,0-0.07l-0.19.26a0.22,0.22,0,0,1,.24.06,0.63,0.63,0,0,1-.39,0,1.15,1.15,0,0,0-.15.2c-0.09.22-.36,0-0.36,0a0.26,0.26,0,0,0-.36.22,0.23,0.23,0,0,0-.16.27l-0.18-.17,0.1-.06L26.58,39l0.19-.15,0-.15L27,38.48l0-.09a1.45,1.45,0,0,0,.27.19c0.39,0.24.49,0,.49,0l0-.09,0.11-.12-0.07,0c0.19-.24-0.06-0.14-0.06-0.14v-0.1H27.65V38.07a0.08,0.08,0,0,1-.1-0.08c0-.09-0.26,0-0.26,0s-0.14,0-.14,0a0.57,0.57,0,0,0-.27.19c-0.18,0-.13-0.13-0.13-0.13a0.68,0.68,0,0,1-.74.07,0.43,0.43,0,0,1-.35-0.36c-1-.08.08,0.55,0.08,0.55H25.69s0.14,0.31,0,.28-0.19.22-.19,0.22-0.21.1-.21,0.1l0.25,0.17,0,0.12s0,0,.08,0a0.69,0.69,0,0,0,.22,0s0.17-.28.33-0.07a0.6,0.6,0,0,0,.42.23l-0.14.11a0.38,0.38,0,0,0,.15,0l0,0.08a1.38,1.38,0,0,1,.53.11,0.66,0.66,0,0,0-.27.14c-0.07-.1-0.24.06-0.24,0.06s0.06-.14-0.12,0S26.29,40,26.29,40c0.09-.22-0.11-0.18-0.11-0.18l-0.2.07v0.06a1.38,1.38,0,0,1-.81-0.42,0.85,0.85,0,0,0-.47-0.38,2.67,2.67,0,0,0-.66-0.4,0.91,0.91,0,0,0-.79-0.2V38.4L23,38.33s-0.17-.21-0.18-0.08-0.08,0-.08,0c-0.21.11,0,.2,0,0.2l0,0h0.09l0,0.11a0.68,0.68,0,0,1,.18.27c0.14,0.07.24-.12,0.24-0.12l0.09,0.13s0.16,0,.09.14l-0.12.17a1.73,1.73,0,0,0,1,.47c0.09-.15.17-0.06,0.17-0.06l0-.06a1.43,1.43,0,0,1,.37.33l0.07,0.11-0.4-.1c-0.19-.21-0.15,0-0.15,0a0.16,0.16,0,0,0-.18,0l0-.06L24,39.85h0.06a0.19,0.19,0,0,0,.09.14,1.13,1.13,0,0,0,.09.41l-0.14.11h0.1l0.09,0.13a0.1,0.1,0,0,0,0,.12c0.08,0.06.15-.09,0.11-0.18a0.44,0.44,0,0,1,0-.18h0.07l0.21,0.11,0.21,0.15,0.28,0.06,0.16,0.08L25.46,41l0.14,0.07,0.1,0.06s0,0.2.11,0.19a0.17,0.17,0,0,1,.19.06l-0.35,0,0.06,0.1-0.15.06a1.68,1.68,0,0,0-.9.15,1.21,1.21,0,0,1-1-.18,0.45,0.45,0,0,1-.2-0.09c0.06,0,.07-0.16,0-0.12s-0.06,0-.06,0,0.14-.06.09-0.13-0.14,0-.14,0c-0.07-.44-0.25-0.4-0.23.09s0.21,0.3.21,0.3l-0.06.09s0.06,0.13.06,0.13a0.32,0.32,0,0,1,.08.22,3.45,3.45,0,0,1,.43.58s-0.14.06,0.15,0.14,0.23-.15.23-0.15-0.11,0,0-.06,0.12,0.06.12,0.11a0.75,0.75,0,0,0,0,.17s0.08-.12,0-0.13a0.26,0.26,0,0,1,0-.16s-0.14,0-.06,0a0.31,0.31,0,0,1,.22.06v0.08a1.45,1.45,0,0,1-.11.28c-0.06.09-.14,0-0.14,0a0.6,0.6,0,0,0,0,.31,0.16,0.16,0,0,0,.17.11v0.07l0,0.09a0.67,0.67,0,0,0-.17.28,0.28,0.28,0,0,1-.09.19h-0.2a1.09,1.09,0,0,0-.33-0.1c-0.12,0,0-.08,0-0.08s0-.08-0.15,0,0,0.2,0,.2l0.32,0.1,0.3,0.07h0.2l0.24,0L24.72,44s0.14,0,.06.07a2.42,2.42,0,0,0-.21.18s0,0.12-.14,0l-0.12,0s0,0,0,.06-0.15,0-.15,0H24L24,44.17l-0.06,0s0-.15-0.06,0a0.3,0.3,0,0,1-.14.19V44.27l-0.14.09H23.58v0l-0.28,0c-0.14-.17-0.18-0.06-0.18-0.06l-0.25,0-0.19,0H22.28a0.18,0.18,0,0,1-.14,0c-0.06,0,.07-0.07.07-0.07V44c0.13,0,.11,0,0.09-0.11a0.55,0.55,0,0,0-.14-0.29c-0.09-.11.15-0.08,0.08-0.14a0.81,0.81,0,0,1,0-.38,1,1,0,0,0,.09-0.64,0.53,0.53,0,0,0-.34,0,0.37,0.37,0,0,1-.1.17L22,42.83l-0.07,0,0,0H21.79l0.06-.11-0.18,0V42.5l-0.25.08H21.27l-0.13,0H20.82l-0.07.08-0.09.08-0.09-.08-0.12.09,0,0.08,0.07,0,0,0.15-0.08.1-0.07.12-0.14-.07H20.3l0-.12-0.07-.1,0-.17-0.09-.12H20l-0.14.25-0.12,0,0-.23H19.62l0.05,0.16-0.14.07L19.3,43l0.12,0.24,0.18,0.2h0.14l0.16,0.14L20,43.43l0.16,0.16H20.06v0.3l0.23,0,0.21-.11h0.16l0.09,0.11a1,1,0,0,0,.07.21c0,0.05.11,0,.11,0l0.19,0.11,0,0.18h0.12l0.11,0.11,0.18-.05,0.16-.23h0.16l0.18,0.07L22,44.38H21.81l-0.07.18,0.4,0.14,0.19,0,0.18-.12,0.21,0.14-0.12.14-0.32.07-0.13-.09-0.24,0-0.05.09L21.65,45l0.07-.16-0.14,0-0.19-.11H20.75l0.16,0.12H21l0.09,0.09a0.49,0.49,0,0,0,0,.23,0.29,0.29,0,0,1,0,.18l0.14,0.11h0.19l0.19,0.11,0.12,0.23h0.3L22.29,46H22.5l-0.12.16,0.3,0.32L23,46.36h0.25l-0.12.23,0.14,0.11v0.14h0.11l0.16,0.28,0.05-.06,0.22,0,0.12-.2H24l0.13-.14,0.15-.11v0.19l0.27,0.12-0.08-.12,0.14,0s0-.07,0-0.07l0.32-.08,0-.17,0-.07L25,46.29a0.41,0.41,0,0,1-.28-0.22,0.33,0.33,0,0,1,.08-0.1l0.13,0.25,0.25,0a4.56,4.56,0,0,0,.64-0.88c0-.18.1-0.5,0.1-0.5l0,0.1L26,44.76l0.78-.06c0-.37,0-0.32.24-0.33s0.11,0.15.11,0.15l0,0.1h0.07V44.7l0.34,0V44.57h0.08l0.19-.14H28l0.09-.09,0,0h0.1l0-.15-0.07,0,0.12-.5,0,0V43.65l0.11-.22,0.14-.07,0.12-.13a0.41,0.41,0,0,1,.15-0.16V43l-0.06,0M28.58,39l0,0.1H28.49l-0.06-.05H28.37V39L28.43,39l-0.06-.08V38.82h0.12l0-.17h0.07l0,0.14h0l0,0.07h0.08l-0.07.1Zm0.34,0.43-0.11.06-0.06,0,0,0H28.64l0.08-.07h0.09l0.09,0,0.07,0Zm-0.09-.75h0.1l0.08,0-0.09,0H28.83l0-.06Zm0.33,0.57-0.06,0,0,0.09L29,39.3l0.09,0,0.06,0H29l0.14-.12,0.06,0Zm0.24,0-0.09,0,0.16-.06,0,0.06ZM29.31,39l0-.07h0.1l0,0.05,0,0.05-0.07,0Zm0.55,0.52,0,0.07-0.11-.1h0.14v0Zm-0.14-.26-0.1-.2L29.53,39l0.18-.11-0.05-.06,0.06,0,0-.07-0.2,0H29.25l0-.08,0.14,0,0.12-.14-0.07-.07h-0.1l0,0-0.1,0-0.05,0,0,0.07-0.09,0-0.09,0-0.06,0,0,0.09,0,0-0.11-.27,0.11,0.06,0.14,0,0.13-.08,0.19,0.08,0.31,0.32,0.14,0.09,0.27,0h0.27l-0.05.11,0.18,0,0,0.11,0.05,0.05V39l-0.2.06L30.18,39Zm0.94,0.12,0,0.07h-0.1l-0.13.07H30.18L30,39.45l0.17-.13,0.1,0,0.09,0h0.06l-0.05-.06,0.1,0,0.14,0,0.19,0.14Z"/><path d="M14.76,28.67h1l1.34,4.68H16.08l-0.23-1H14.53l-0.23,1H13.35Zm0.89,2.91-0.47-1.92-0.45,1.92h0.93Z"/><path d="M17.66,32.32h1v1h-1v-1Z"/><path d="M21.75,31.65l0.95,0.06a2,2,0,0,1-.48,1.24,1.46,1.46,0,0,1-1.14.48,1.51,1.51,0,0,1-1.32-.64A3,3,0,0,1,19.3,31a3.05,3.05,0,0,1,.45-1.77,1.52,1.52,0,0,1,1.33-.64q1.46,0,1.59,1.81l-0.94.07q0-1-.65-1a0.57,0.57,0,0,0-.51.34,3,3,0,0,0-.19,1.3,2.77,2.77,0,0,0,.17,1.19,0.56,0.56,0,0,0,.52.32Q21.65,32.59,21.75,31.65Z"/><path d="M23.27,32.32h1v1h-1v-1Z"/><path d="M25.09,28.67h1v3.8h1.51v0.88H25.09V28.67Z"/><path d="M28.05,32.32h1v1h-1v-1Z"/><path d="M29.87,28.67h2.77v0.8H30.89V30.7h1.35v0.8H30.89v1.85h-1V28.67Z"/><path d="M32.62,32.32h1v1h-1v-1Z"/><path d="M34.44,28.67h1v4.68h-1V28.67Z"/><path d="M36.32,32.32h1v1h-1v-1Z"/><path d="M38.14,28.67h1.11a3,3,0,0,1,1.17.19,1.48,1.48,0,0,1,.72.71A3.08,3.08,0,0,1,41.41,31a3.5,3.5,0,0,1-.16,1.12,2,2,0,0,1-.43.77,1.33,1.33,0,0,1-.6.38,3.11,3.11,0,0,1-.84.1H38.14V28.67Zm1,0.8v3.07h0.18a1,1,0,0,0,.55-0.14,0.93,0.93,0,0,0,.31-0.48,3.2,3.2,0,0,0,.12-1A2.57,2.57,0,0,0,40.2,30a0.85,0.85,0,0,0-.32-0.44,1,1,0,0,0-.53-0.11H39.17Z"/><path d="M42.06,32.32h1v1h-1v-1Z"/><path d="M43.87,28.67h2.77v0.8H44.9V30.7h1.35v0.8H44.9v1.85h-1V28.67Z"/></svg>