<svg id="Capa_1" data-name="Capa 1" xmlns="http://www.w3.org/2000/svg" viewBox="0 0 87.95 113.39"><defs><style>.cls-1{fill:#01197e;}</style></defs><title>CORG 1</title><path class="cls-1" d="M44,112.26a1.33,1.33,0,0,1-1.25-.88c0-.05-2.39-6.06-13.89-9.49-6-1.77-13.37-4-19-10.28C3.46,84.6.56,73.83,0.93,58.7a1.33,1.33,0,0,1,1.25-1.29c1.92-.11,5.88-0.93,5.88-2.77a0.76,0.76,0,0,1,0-.35,0.81,0.81,0,0,0-.22-0.58c-0.34-.41-1.56-1.36-5.68-1.4A1.33,1.33,0,0,1,1,50.39,75.22,75.22,0,0,0,5.45,38c1.76-6.64,3.4-16.51,1.24-25.81a1.33,1.33,0,0,1,1.39-1.62,18.45,18.45,0,0,0,6-.83,14.7,14.7,0,0,0,9.26-7.85,1.33,1.33,0,0,1,1.81-.6A44.75,44.75,0,0,0,44,5.21a44.51,44.51,0,0,0,18.8-3.93,1.33,1.33,0,0,1,1.81.6c4.53,9.36,15.18,8.69,15.29,8.68a1.33,1.33,0,0,1,1.39,1.62c-4.15,17.88,5.57,38,5.67,38.22a1.33,1.33,0,0,1-1.18,1.91c-4.12,0-5.35,1-5.68,1.4a0.81,0.81,0,0,0-.22.58,0.76,0.76,0,0,1,0,.35c0,1.83,4,2.67,5.88,2.77A1.33,1.33,0,0,1,87,58.7c0.36,15.13-2.54,25.9-8.86,32.92-5.68,6.3-13.09,8.5-19,10.28-11.43,3.41-13.84,9.36-13.9,9.49a1.33,1.33,0,0,1-1.23.87h0ZM3.56,59.93c-0.18,13.81,2.51,23.6,8.2,29.92,5.18,5.74,12.19,7.83,17.83,9.51,8.55,2.55,12.6,6.5,14.38,9,1.77-2.45,5.81-6.4,14.39-9C64,97.68,71,95.59,76.19,89.85c5.69-6.32,8.38-16.11,8.2-29.92a17,17,0,0,1-2.66-.59c-3.6-1.13-4.44-3.07-4.49-4.56a3.39,3.39,0,0,1,.65-2.6c1-1.35,3-2.17,5.84-2.44a82.22,82.22,0,0,1-3.77-11c-1.74-6.57-3.38-16.18-1.62-25.53a21.94,21.94,0,0,1-5.18-.91A17.5,17.5,0,0,1,62.8,4.18,48.56,48.56,0,0,1,44,7.86,48.56,48.56,0,0,1,25.15,4.18a17.5,17.5,0,0,1-10.35,8.1,22,22,0,0,1-5.18.91c1.76,9.35.13,19-1.62,25.53a82.23,82.23,0,0,1-3.77,11c2.88,0.27,4.84,1.09,5.84,2.44a3.39,3.39,0,0,1,.65,2.6c-0.05,1.48-.9,3.42-4.49,4.56A17,17,0,0,1,3.56,59.93Z"/><path class="cls-1" d="M49.65,37.07v40.6a20.6,20.6,0,0,1-2.84.59v-39q-0.7-.11-1.42-0.17V78.4q-0.7.05-1.42,0t-1.42,0V39.1c-0.48,0-1,.09-1.42.17v39a20.63,20.63,0,0,1-2.84-.59V37.07a20.63,20.63,0,0,1,2.84-.59q0.7-.1,1.42-0.14t1.42,0q0.72,0,1.42,0c0.48,0,1,.08,1.42.14A20.6,20.6,0,0,1,49.65,37.07Z"/><path class="cls-1" d="M55.34,39.62q-0.69-.44-1.42-0.83a20.44,20.44,0,0,0-2.84-1.26v39.7A20.44,20.44,0,0,0,53.92,76V63.71a28.26,28.26,0,0,0,4.26-3.11V41.8A21,21,0,0,0,55.34,39.62Zm0,20a13.2,13.2,0,0,1-1.42.91V42q0.74,0.48,1.42,1V59.58Z"/><path class="cls-1" d="M36.87,74.27v3A20.34,20.34,0,0,1,34,76c-0.49-.26-1-0.54-1.42-0.83a21,21,0,0,1-2.84-2.18V41.8a21,21,0,0,1,2.84-2.18V71.74c0.46,0.36.93,0.7,1.42,1A18.34,18.34,0,0,0,36.87,74.27Z"/><path class="cls-1" d="M36.87,37.52V71.68A15.84,15.84,0,0,1,34,69.87V38.79A20.34,20.34,0,0,1,36.87,37.52Z"/><path class="cls-1" d="M25.51,47.2a21,21,0,0,0,2.84,24.32V43.23A21,21,0,0,0,25.51,47.2Zm0.77,15.92a9.9,9.9,0,0,1-.69-1.61,13.84,13.84,0,0,1,0-8.26,9.9,9.9,0,0,1,.69-1.61V63.12Z"/><path class="cls-1" d="M62.44,47.21a21,21,0,0,0-2.84-4V71.52A21.08,21.08,0,0,0,62.44,47.21ZM62.35,61.5a9.9,9.9,0,0,1-.69,1.61V51.63a9.9,9.9,0,0,1,.69,1.61A13.84,13.84,0,0,1,62.35,61.5Z"/><path class="cls-1" d="M44,9.85a52.84,52.84,0,0,1-5.68-.31V35a23.36,23.36,0,0,1,11.36,0V9.54A52.81,52.81,0,0,1,44,9.85ZM46.36,21.1l-4.05,6a0.1,0.1,0,0,1-.19-0.08l1-5.52H41.65a0.1,0.1,0,0,1-.07-0.13l1.18-4a0.1,0.1,0,0,1,.1-0.07h3.45a0.1,0.1,0,0,1,.06.14L45,20.94h1.3l0.06,0A0.1,0.1,0,0,1,46.36,21.1Z"/><path class="cls-1" d="M62,6.65l-1.45.52V41.33a23.06,23.06,0,0,1,0,32.08V96.61a49,49,0,0,0,6.33-2.42,26.69,26.69,0,0,0,5-3.07V14A19.25,19.25,0,0,1,62,6.65Z"/><path class="cls-1" d="M20.9,57.37a22.91,22.91,0,0,1,6.5-16V7.17l-1.45-.52A19.25,19.25,0,0,1,16,14V91.12a26.76,26.76,0,0,0,5,3.07,48.87,48.87,0,0,0,6.33,2.42V73.42A22.91,22.91,0,0,1,20.9,57.37Z"/><path class="cls-1" d="M44,80.44a23.22,23.22,0,0,1-5.68-.7v21.12a25.54,25.54,0,0,1,5.29,4L44,105.21a25,25,0,0,1,5.69-4.35V79.74A23.22,23.22,0,0,1,44,80.44Z"/></svg>